<?xml version="1.0" standalone="no"?>
<!DOCTYPE svg PUBLIC "-//W3C//DTD SVG 20010904//EN"
 "http://www.w3.org/TR/2001/REC-SVG-20010904/DTD/svg10.dtd">
<svg version="1.0" xmlns="http://www.w3.org/2000/svg"
 width="174.000000pt" height="174.000000pt" viewBox="0 0 174.000000 174.000000"
 preserveAspectRatio="xMidYMid meet">
<metadata>
Created by potrace 1.14, written by Peter Selinger 2001-2017
</metadata>
<g transform="translate(0.000000,174.000000) scale(0.100000,-0.100000)"
fill="#000000" stroke="none">
<path d="M1150 1707 c-25 -11 -48 -24 -51 -29 -3 -5 -10 -9 -15 -9 -18 1 -44
-11 -44 -20 0 -6 -4 -7 -10 -4 -5 3 -10 0 -10 -8 0 -8 -8 -21 -17 -28 -17 -13
-17 -13 -3 6 11 15 7 14 -13 -4 -15 -14 -27 -31 -27 -38 0 -8 -4 -12 -8 -9 -7
4 -43 -54 -46 -74 -1 -3 -6 -12 -11 -20 -11 -17 -17 -50 -19 -95 -1 -28 1 -30
39 -31 22 0 46 4 53 9 6 5 12 6 12 2 0 -5 10 0 22 11 12 10 18 13 14 6 -7 -11
-4 -11 13 0 12 7 21 16 21 21 0 4 5 5 10 2 6 -3 10 -2 10 2 0 5 9 14 21 21 12
8 18 9 14 3 -3 -6 -4 -11 0 -11 3 0 14 15 25 33 11 17 20 28 20 24 0 -4 11 4
25 19 13 14 22 30 19 35 -3 5 -1 9 3 9 12 0 46 60 39 67 -3 4 -1 12 5 19 5 7
12 36 15 64 l5 51 -33 -3 c-18 -1 -53 -11 -78 -21z"/>
<path d="M1218 1315 c-2 -2 -25 -6 -52 -9 -27 -4 -64 -13 -82 -21 -18 -7 -34
-11 -37 -9 -2 3 -17 -1 -33 -7 -16 -7 -32 -13 -36 -14 -5 -2 -11 -4 -15 -5 -5
-1 -11 -2 -15 -1 -5 0 -8 -3 -8 -7 0 -5 -27 -8 -60 -8 -33 0 -60 5 -60 10 0 5
-3 6 -6 3 -4 -3 -16 -1 -28 5 -11 7 -25 13 -31 14 -5 2 -20 5 -32 8 -13 3 -33
9 -45 12 -13 3 -27 6 -33 7 -5 2 -14 5 -20 8 -9 5 -140 4 -140 -1 0 -1 -13 -4
-30 -6 -16 -3 -32 -8 -35 -12 -3 -4 -18 -8 -34 -10 -34 -4 -170 -88 -162 -101
3 -4 -6 -13 -20 -20 -14 -6 -23 -15 -20 -20 3 -5 -1 -11 -9 -15 -8 -3 -15 -11
-15 -17 0 -7 -7 -17 -15 -23 -9 -6 -17 -21 -18 -34 0 -12 -4 -22 -8 -22 -6 0
-13 -19 -26 -70 -24 -95 -20 -263 7 -336 5 -13 8 -24 5 -24 -4 0 16 -64 32
-100 3 -8 7 -21 9 -29 1 -8 8 -17 14 -21 7 -4 11 -10 11 -14 -3 -16 12 -56 21
-56 5 0 7 -4 4 -9 -3 -5 1 -12 10 -15 9 -4 14 -9 11 -13 -7 -6 86 -145 111
-165 13 -11 15 -11 7 2 -5 9 -5 12 1 7 5 -5 9 -12 9 -15 1 -15 38 -62 45 -57
4 3 11 -2 14 -11 3 -9 11 -12 18 -8 7 4 10 4 6 -1 -8 -8 6 -23 41 -43 19 -11
22 -11 15 0 -4 7 2 4 14 -6 12 -11 22 -16 22 -11 0 4 6 3 13 -2 18 -14 65 -15
111 -1 23 6 44 11 49 10 4 -1 7 2 7 7 0 5 9 7 20 4 12 -3 20 0 20 6 0 7 5 9
10 6 6 -4 18 -1 27 7 9 7 18 12 20 11 1 -2 4 -3 6 -2 26 8 54 10 112 9 91 -1
105 -3 105 -12 0 -4 3 -7 8 -6 4 0 14 -1 22 -5 47 -17 83 -26 91 -21 5 3 9 0
9 -6 0 -7 7 -10 15 -7 8 4 17 2 20 -3 10 -16 145 4 145 22 0 5 6 8 14 6 8 -2
22 6 31 17 9 11 14 13 10 5 -4 -8 5 -2 19 13 14 15 26 25 26 21 0 -4 10 6 22
22 13 16 26 31 30 32 5 2 8 10 8 18 0 9 4 13 9 10 5 -4 15 7 22 23 7 16 17 27
21 25 7 -5 12 10 9 29 0 4 3 7 8 7 5 0 13 9 16 21 4 11 9 18 12 15 7 -6 33 40
33 57 0 6 8 19 18 30 12 15 13 18 2 12 -11 -6 -10 -3 3 12 9 11 17 27 17 36 0
18 -33 40 -44 30 -3 -3 -6 -1 -6 6 0 7 -6 11 -14 8 -8 -3 -25 9 -41 29 -19 23
-33 33 -44 29 -8 -3 -12 -3 -9 1 4 3 -2 15 -13 27 -10 11 -19 27 -19 34 0 8
-4 12 -9 9 -8 -5 -11 1 -20 39 -2 6 -7 15 -13 22 -31 38 -28 244 4 264 7 4 9
11 6 15 -4 3 0 13 8 21 8 8 12 19 8 24 -3 5 -1 8 4 7 6 -2 10 1 10 6 0 5 6 12
14 17 7 5 13 14 13 21 0 7 5 13 10 13 16 0 55 31 48 38 -3 4 0 7 9 7 8 0 22 8
31 18 16 17 15 20 -13 47 -17 16 -30 25 -30 20 0 -5 -7 1 -16 13 -8 12 -19 20
-24 17 -4 -3 -11 2 -14 11 -3 8 -10 12 -16 9 -5 -3 -10 -1 -10 5 0 6 -4 8 -10
5 -5 -3 -10 -2 -10 4 0 5 -8 10 -17 10 -24 0 -45 5 -60 14 -7 5 -17 6 -22 2
-5 -3 -12 -1 -16 5 -3 5 -16 10 -28 9 -12 0 -36 2 -54 4 -18 3 -33 3 -35 2z"/>
</g>
</svg>
